<svg width="428" height="812" viewBox="0 0 428 812" fill="none" xmlns="http://www.w3.org/2000/svg">
<path d="M532.592 737.647C626.561 868.529 384.573 901.355 278.768 866.976C172.963 832.598 115.061 718.958 149.439 613.153C183.817 507.348 290.971 487.269 389.928 510.908C488.885 534.546 438.623 606.765 532.592 737.647Z" fill="#F2F5FE"/>
<path d="M350.132 392.879C302.333 420.118 299.823 336.772 315.273 302.07C330.724 267.368 371.381 251.761 406.083 267.211C440.785 282.662 456.392 323.319 440.941 358.021C425.491 392.723 397.931 365.641 350.132 392.879Z" fill="#1BBC9B"/>
<path d="M201.008 266.329C161.149 422.443 -19.5441 258.169 -61.2191 155.02C-102.894 51.8713 -53.0593 -65.5318 50.0897 -107.207C153.239 -148.882 237.498 -79.7027 282.998 11.2973C328.498 102.297 240.867 110.215 201.008 266.329Z" fill="#F2F5FE"/>
<path d="M42.9996 -131.222C138.438 -261.036 244.435 -41.0359 244.435 70.214C244.435 181.464 154.25 271.65 42.9996 271.65C-68.2502 271.65 -158.436 181.464 -158.436 70.214C-158.436 -41.0359 -52.4385 -1.40715 42.9996 -131.222Z" fill="#1BBC9B"/>
</svg>
