<svg width="20" height="24" viewBox="0 0 20 24" fill="none" xmlns="http://www.w3.org/2000/svg">
<path d="M10 0C12.6522 0 15.1957 1.04065 17.0711 2.89301C18.9464 4.74537 20 7.25772 20 9.87736C20 14.0512 17.0308 18.5998 11.1692 23.5719C10.8433 23.8485 10.4278 24.0004 9.99808 24C9.56841 23.9996 9.15313 23.847 8.82769 23.5699L8.44 23.2376C2.83795 18.3952 0 13.958 0 9.87736C0 7.25772 1.05357 4.74537 2.92893 2.89301C4.8043 1.04065 7.34784 0 10 0ZM10 6.07837C8.97994 6.07837 8.00165 6.47862 7.28036 7.19107C6.55907 7.90352 6.15385 8.8698 6.15385 9.87736C6.15385 10.8849 6.55907 11.8512 7.28036 12.5636C8.00165 13.2761 8.97994 13.6763 10 13.6763C11.0201 13.6763 11.9983 13.2761 12.7196 12.5636C13.4409 11.8512 13.8462 10.8849 13.8462 9.87736C13.8462 8.8698 13.4409 7.90352 12.7196 7.19107C11.9983 6.47862 11.0201 6.07837 10 6.07837Z" fill="#1BBC9B"/>
</svg>
