<svg width="30" height="30" viewBox="0 0 30 30" fill="none" xmlns="http://www.w3.org/2000/svg">
<rect width="30" height="30" rx="15" fill="#1BBC9B"/>
<path d="M11.6345 5.14062C11.6345 3.23633 13.197 1.625 15.1501 1.625C17.0544 1.625 18.6657 3.23633 18.6657 5.14062C18.6657 7.09375 17.0544 8.65625 15.1501 8.65625C13.197 8.65625 11.6345 7.09375 11.6345 5.14062ZM24.0368 5.23828C24.6716 5.82422 24.6716 6.84961 24.0368 7.43555L19.447 12.0742V25.0625C19.447 25.9414 18.7146 26.625 17.8845 26.625H17.1032C16.2243 26.625 15.5407 25.9414 15.5407 25.0625V19.5938H14.7595V25.0625C14.7595 25.9414 14.0271 26.625 13.197 26.625H12.4157C11.5368 26.625 10.8532 25.9414 10.8532 25.0625V12.0742L6.21457 7.43555C5.5798 6.84961 5.5798 5.82422 6.21457 5.23828C6.80051 4.60352 7.8259 4.60352 8.41184 5.23828L12.6599 9.4375H17.5915L21.8396 5.23828C22.4255 4.60352 23.4509 4.60352 24.0368 5.23828Z" fill="white"/>
</svg>
