<svg width="15" height="15" viewBox="0 0 15 15" fill="yellow" xmlns="http://www.w3.org/2000/svg">
<path d="M7.5 0.109375C11.5137 0.109375 14.7656 3.36133 14.7656 7.375C14.7656 11.3887 11.5137 14.6406 7.5 14.6406C3.48633 14.6406 0.234375 11.3887 0.234375 7.375C0.234375 3.36133 3.48633 0.109375 7.5 0.109375ZM10.1953 9.2793C10.2539 9.2207 10.3125 9.10352 10.3125 8.98633C10.3125 8.83984 10.2246 8.72266 10.1367 8.63477L8.4375 7.375V3.15625C8.4375 2.92188 8.20312 2.6875 7.96875 2.6875H7.03125C6.76758 2.6875 6.5625 2.92188 6.5625 3.15625V7.72656C6.5625 8.10742 6.70898 8.42969 7.00195 8.63477L8.96484 10.0996C9.02344 10.1582 9.14062 10.2168 9.22852 10.2168C9.4043 10.2168 9.52148 10.1289 9.60938 10.0117L10.1953 9.2793Z" fill="#1BBC9B"/>
</svg>
