<svg width="12" height="16" viewBox="0 0 12 16" fill="none" xmlns="http://www.w3.org/2000/svg">
<path d="M5.03906 15.582C0.761719 9.42969 0 8.78516 0 6.5C0 3.39453 2.49023 0.875 5.625 0.875C8.73047 0.875 11.25 3.39453 11.25 6.5C11.25 8.78516 10.459 9.42969 6.18164 15.582C5.91797 15.9922 5.30273 15.9922 5.03906 15.582ZM5.625 8.84375C6.91406 8.84375 7.96875 7.81836 7.96875 6.5C7.96875 5.21094 6.91406 4.15625 5.625 4.15625C4.30664 4.15625 3.28125 5.21094 3.28125 6.5C3.28125 7.81836 4.30664 8.84375 5.625 8.84375Z" fill="#1BBC9B"/>
</svg>
