<svg width="15" height="16" viewBox="0 0 15 16" fill="none" xmlns="http://www.w3.org/2000/svg">
<path d="M12.1875 10.25C13.7109 10.25 15 11.5391 15 13.0625C15 14.6152 13.7109 15.875 12.1875 15.875H4.04297C4.42383 15.4062 4.95117 14.7324 5.41992 14H12.1875C12.6855 14 13.125 13.5898 13.125 13.0625C13.125 12.5645 12.6855 12.125 12.1875 12.125H9.375C7.82227 12.125 6.5625 10.8652 6.5625 9.3125C6.5625 7.78906 7.82227 6.5 9.375 6.5H10.6934C10.0195 5.5625 9.375 4.44922 9.375 3.6875C9.375 2.13477 10.6348 0.875 12.1875 0.875C13.7402 0.875 15 2.13477 15 3.6875C15 5.24023 12.1875 8.375 12.1875 8.375H9.375C8.84766 8.375 8.4375 8.81445 8.4375 9.3125C8.4375 9.83984 8.84766 10.25 9.375 10.25H12.1875ZM12.1875 2.75C11.6602 2.75 11.25 3.18945 11.25 3.6875C11.25 4.21484 11.6602 4.625 12.1875 4.625C12.6855 4.625 13.125 4.21484 13.125 3.6875C13.125 3.18945 12.6855 2.75 12.1875 2.75ZM2.8125 8.375C4.36523 8.375 5.625 9.63477 5.625 11.1875C5.625 12.7402 2.8125 15.875 2.8125 15.875C2.8125 15.875 0 12.7402 0 11.1875C0 9.63477 1.25977 8.375 2.8125 8.375ZM2.8125 12.125C3.31055 12.125 3.75 11.7148 3.75 11.1875C3.75 10.6895 3.31055 10.25 2.8125 10.25C2.28516 10.25 1.875 10.6895 1.875 11.1875C1.875 11.7148 2.28516 12.125 2.8125 12.125Z" fill="#1BBC9B"/>
</svg>
