<svg width="19" height="16" viewBox="0 0 19 16" fill="none" xmlns="http://www.w3.org/2000/svg">
<path d="M16.2898 4.59375C16.2898 4.76953 16.2898 4.91016 16.2898 5.08594C16.2898 9.97266 12.5984 15.5625 5.81328 15.5625C3.70391 15.5625 1.77031 14.9648 0.153126 13.9102C0.434376 13.9453 0.715626 13.9805 1.03203 13.9805C2.75469 13.9805 4.33672 13.3828 5.60234 12.3984C3.98516 12.3633 2.61406 11.3086 2.15703 9.83203C2.40313 9.86719 2.61406 9.90234 2.86016 9.90234C3.17656 9.90234 3.52813 9.83203 3.80938 9.76172C2.12188 9.41016 0.856251 7.93359 0.856251 6.14062V6.10547C1.34844 6.38672 1.94609 6.52734 2.54375 6.5625C1.52422 5.89453 0.891407 4.76953 0.891407 3.50391C0.891407 2.80078 1.06719 2.16797 1.38359 1.64062C3.21172 3.85547 5.95391 5.33203 9.0125 5.50781C8.94219 5.22656 8.90703 4.94531 8.90703 4.66406C8.90703 2.625 10.5594 0.972656 12.5984 0.972656C13.6531 0.972656 14.6023 1.39453 15.3055 2.13281C16.1141 1.95703 16.9227 1.64062 17.6258 1.21875C17.3445 2.09766 16.782 2.80078 16.0086 3.25781C16.7469 3.1875 17.4852 2.97656 18.118 2.69531C17.6258 3.43359 16.993 4.06641 16.2898 4.59375Z" fill="white"/>
</svg>
