<svg width="20" height="14" viewBox="0 0 20 14" fill="none" xmlns="http://www.w3.org/2000/svg">
<path d="M19.3408 2.64453C19.7627 4.12109 19.7627 7.28516 19.7627 7.28516C19.7627 7.28516 19.7627 10.4141 19.3408 11.9258C19.1299 12.7695 18.4619 13.4023 17.6533 13.6133C16.1416 14 10.165 14 10.165 14C10.165 14 4.15332 14 2.6416 13.6133C1.83301 13.4023 1.16504 12.7695 0.954102 11.9258C0.532227 10.4141 0.532227 7.28516 0.532227 7.28516C0.532227 7.28516 0.532227 4.12109 0.954102 2.64453C1.16504 1.80078 1.83301 1.13281 2.6416 0.921875C4.15332 0.5 10.165 0.5 10.165 0.5C10.165 0.5 16.1416 0.5 17.6533 0.921875C18.4619 1.13281 19.1299 1.80078 19.3408 2.64453ZM8.19629 10.1328L13.1885 7.28516L8.19629 4.4375V10.1328Z" fill="white"/>
</svg>
