<svg width="47" height="47" viewBox="0 0 47 47" fill="none" xmlns="http://www.w3.org/2000/svg">
<rect width="47" height="47" rx="23.5" fill="#1BBC9B"/>
<path d="M37.3117 29.3711C37.7805 29.6055 38.132 30.1328 38.132 30.7188C38.132 30.7773 38.132 30.8945 38.132 31.0117L36.7258 37.1055C36.55 37.75 36.0227 38.1602 35.3781 38.1602C20.3195 38.1602 8.19063 26.0312 8.19063 10.9727C8.19063 10.3281 8.60078 9.80078 9.24531 9.625L15.3391 8.21875C15.4563 8.21875 15.5734 8.16016 15.632 8.16016C16.218 8.16016 16.7453 8.51172 16.9797 9.03906L19.7922 15.6016C19.8508 15.7773 19.9094 15.9531 19.9094 16.1289C19.9094 16.5977 19.675 17.0078 19.382 17.2422L15.8078 20.1719C17.9758 24.7422 21.6086 28.375 26.1789 30.543L29.1086 26.9688C29.343 26.6758 29.7531 26.4414 30.1633 26.4414C30.3977 26.4414 30.5734 26.5 30.7492 26.5586L37.3117 29.3711Z" fill="white"/>
</svg>
