<svg width="47" height="49" viewBox="0 0 47 49" fill="none" xmlns="http://www.w3.org/2000/svg">
<rect width="47" height="49" rx="23.5" fill="#F2F2F2"/>
<path d="M22.2453 38.5742C13.6906 26.2695 12.1672 24.9805 12.1672 20.4102C12.1672 14.1992 17.1477 9.16016 23.4172 9.16016C29.6281 9.16016 34.6672 14.1992 34.6672 20.4102C34.6672 24.9805 33.0852 26.2695 24.5305 38.5742C24.0031 39.3945 22.7727 39.3945 22.2453 38.5742ZM23.4172 25.0977C25.9953 25.0977 28.1047 23.0469 28.1047 20.4102C28.1047 17.832 25.9953 15.7227 23.4172 15.7227C20.7805 15.7227 18.7297 17.832 18.7297 20.4102C18.7297 23.0469 20.7805 25.0977 23.4172 25.0977Z" fill="#1BBC9B"/>
</svg>
