<svg width="47" height="47" viewBox="0 0 47 47" fill="none" xmlns="http://www.w3.org/2000/svg">
<rect width="47" height="47" rx="23.5" fill="#434A54"/>
<path d="M37.6047 19.3516C37.8391 19.1758 38.1906 19.3516 38.1906 19.6445V31.5977C38.1906 33.1797 36.9016 34.4102 35.3781 34.4102H11.0031C9.42109 34.4102 8.19063 33.1797 8.19063 31.5977V19.6445C8.19063 19.3516 8.48359 19.1758 8.71797 19.3516C10.0656 20.4062 11.7648 21.6953 17.7414 26.0312C18.9719 26.9102 21.0813 28.8438 23.1906 28.8438C25.2414 28.8438 27.4094 26.9102 28.5813 26.0312C34.5578 21.6953 36.257 20.4062 37.6047 19.3516ZM23.1906 26.9102C21.7844 26.9688 19.8508 25.2109 18.8547 24.5078C11.0617 18.8828 10.4758 18.3555 8.71797 16.9492C8.36641 16.7148 8.19063 16.3047 8.19063 15.8359V14.7227C8.19063 13.1992 9.42109 11.9102 11.0031 11.9102H35.3781C36.9016 11.9102 38.1906 13.1992 38.1906 14.7227V15.8359C38.1906 16.3047 37.9563 16.7148 37.6047 16.9492C35.8469 18.3555 35.2609 18.8828 27.468 24.5078C26.4719 25.2109 24.5383 26.9688 23.1906 26.9102Z" fill="white"/>
</svg>
