<svg width="33" height="33" viewBox="0 0 33 33" fill="none" xmlns="http://www.w3.org/2000/svg">
<rect width="33" height="33" rx="16.5" fill="#1BBC9B"/>
<path d="M26.625 13.5C28.334 13.5 31.3125 14.916 31.3125 16.625C31.3125 18.3828 28.334 19.75 26.625 19.75H21.0098L15.8828 28.7344C15.7363 28.9785 15.4922 29.125 15.1992 29.125H12.0254C11.4883 29.125 11.0977 28.6367 11.2441 28.1484L13.6367 19.75H8.65625L6.50781 22.582C6.36133 22.7773 6.16602 22.875 5.92188 22.875H3.96875C3.43164 22.875 3.04102 22.4355 3.1875 21.9473L4.75 16.625L3.1875 11.3516C3.04102 10.8633 3.43164 10.375 3.96875 10.375H5.92188C6.16602 10.375 6.36133 10.5215 6.50781 10.7168L8.65625 13.5H13.6367L11.2441 5.15039C11.0977 4.66211 11.4883 4.125 12.0254 4.125H15.1992C15.4922 4.125 15.7363 4.32031 15.8828 4.56445L21.0098 13.5H26.625Z" fill="white"/>
</svg>
