<svg width="33" height="33" viewBox="0 0 33 33" fill="none" xmlns="http://www.w3.org/2000/svg">
<rect width="33" height="33" rx="16.5" fill="#1BBC9B"/>
<path d="M16.745 21.3125C14.1083 21.3125 12.0575 19.2617 12.0575 16.625V8.8125C12.0575 6.22461 14.1083 4.125 16.745 4.125C19.3329 4.125 21.4325 6.22461 21.4325 8.8125V16.625C21.4325 19.2617 19.3329 21.3125 16.745 21.3125ZM24.5575 13.5C24.9481 13.5 25.3387 13.8906 25.3387 14.2812V16.625C25.3387 20.9707 22.0673 24.584 17.9169 25.1699V26.7812H20.6512C21.0419 26.7812 21.4325 27.1719 21.4325 27.5625V28.3438C21.4325 28.7832 21.0419 29.125 20.6512 29.125H12.8387C12.3993 29.125 12.0575 28.7832 12.0575 28.3438V27.5625C12.0575 27.1719 12.3993 26.7812 12.8387 26.7812H15.5731V25.1211C11.2274 24.5352 8.15125 20.6289 8.15125 16.2832V14.2812C8.15125 13.8906 8.49305 13.5 8.9325 13.5H9.71375C10.1044 13.5 10.495 13.8906 10.495 14.2812V16.3809C10.495 19.6523 12.8387 22.5332 16.1102 22.875C19.8212 23.2168 22.995 20.2871 22.995 16.625V14.2812C22.995 13.8906 23.3368 13.5 23.7762 13.5H24.5575Z" fill="white"/>
</svg>
