<svg width="33" height="33" viewBox="0 0 33 33" fill="none" xmlns="http://www.w3.org/2000/svg">
<rect width="33" height="33" rx="16.5" fill="#1BBC9B"/>
<path d="M29.0118 13.4512C29.2071 13.3047 29.5 13.4512 29.5 13.6953V23.6562C29.5 24.9746 28.4258 26 27.1563 26H6.8438C5.52544 26 4.50005 24.9746 4.50005 23.6562V13.6953C4.50005 13.4512 4.74419 13.3047 4.9395 13.4512C6.06255 14.3301 7.47857 15.4043 12.459 19.0176C13.4844 19.75 15.2422 21.3613 17 21.3613C18.709 21.3613 20.5157 19.75 21.4922 19.0176C26.4727 15.4043 27.8887 14.3301 29.0118 13.4512ZM17 19.75C15.8282 19.7988 14.2168 18.334 13.3868 17.748C6.89263 13.0605 6.40435 12.6211 4.9395 11.4492C4.64653 11.2539 4.50005 10.9121 4.50005 10.5215V9.59375C4.50005 8.32422 5.52544 7.25 6.8438 7.25H27.1563C28.4258 7.25 29.5 8.32422 29.5 9.59375V10.5215C29.5 10.9121 29.3047 11.2539 29.0118 11.4492C27.5469 12.6211 27.0586 13.0605 20.5645 17.748C19.7344 18.334 18.1231 19.7988 17 19.75Z" fill="white"/>
</svg>
