<svg width="375" height="291" viewBox="0 0 375 291" fill="none" xmlns="http://www.w3.org/2000/svg">
<g clip-path="url(#clip0_17_1729)">
<rect width="375" height="291" fill="black" fill-opacity="0.01"/>
<rect width="375" height="291" fill="#CCCED3" fill-opacity="0.760784"/>
</g>
<g clip-path="url(#clip1_17_1729)">
<path fill-rule="evenodd" clip-rule="evenodd" d="M340.327 253.666C340.327 253.986 340.32 254.093 340.3 254.413C340.288 254.703 340.245 254.992 340.17 255.273C340.01 255.863 339.663 256.385 339.18 256.759C338.191 257.528 336.806 257.528 335.817 256.759C335.332 256.386 334.983 255.864 334.823 255.273C334.75 254.991 334.706 254.703 334.693 254.413C334.677 254.093 334.673 253.986 334.673 253.666C334.673 249.232 334.653 245.945 334.68 245.592C334.699 245.301 334.747 245.013 334.823 244.732C334.983 244.141 335.332 243.618 335.817 243.245C336.806 242.476 338.191 242.476 339.18 243.245C339.663 243.62 340.01 244.142 340.17 244.732C340.255 245.012 340.308 245.3 340.33 245.592C340.353 245.972 340.327 249.219 340.327 253.666ZM344.166 251.332C344.627 251.332 345 251.705 345 252.165C345 252.188 344.999 252.21 344.997 252.233V254.282H344.987H344.987C344.989 258.111 342.128 261.336 338.327 261.789V264.323H341.467V264.334C341.478 264.333 341.489 264.333 341.5 264.333C341.961 264.333 342.334 264.706 342.334 265.166C342.334 265.627 341.961 266 341.5 266C341.489 266 341.478 266 341.467 265.999V266H333.53V265.999C333.52 266 333.51 266 333.5 266C333.04 266 332.667 265.627 332.667 265.166C332.667 264.706 333.04 264.333 333.5 264.333C333.51 264.333 333.52 264.333 333.53 264.334V264.323H336.677V261.789C332.867 261.347 329.995 258.117 330 254.282C330 254.262 330.002 254.243 330.003 254.224L330.003 254.224C330.005 254.209 330.006 254.194 330.006 254.179V252.269C330.002 252.235 330 252.2 330 252.165C330 251.705 330.373 251.332 330.833 251.332C331.294 251.332 331.667 251.705 331.667 252.165C331.667 252.193 331.665 252.221 331.663 252.248V254.542H331.658V254.549C331.658 254.564 331.659 254.58 331.661 254.596C331.662 254.61 331.663 254.624 331.663 254.639V254.952H331.678C331.926 257.916 334.351 260.226 337.324 260.329H337.66C340.634 260.228 343.06 257.917 343.307 254.952H343.327V252.175L343.333 252.175L343.333 252.165C343.333 251.705 343.706 251.332 344.166 251.332ZM341.993 252.879C341.993 253.382 341.993 253.912 341.967 254.415C341.946 254.869 341.877 255.32 341.76 255.759C341.499 256.681 340.943 257.491 340.177 258.066C338.605 259.306 336.388 259.306 334.817 258.066C334.049 257.493 333.492 256.682 333.233 255.759C333.115 255.32 333.046 254.869 333.026 254.415C332.997 253.912 333 253.382 333 252.879V248.665C333 248.165 333.003 245.955 333 245.581C333.013 245.125 333.092 244.672 333.233 244.238C333.767 242.324 335.51 241 337.497 241C339.484 241 341.227 242.324 341.761 244.238C341.886 244.676 341.964 245.126 341.994 245.581C342.024 246.085 341.994 248.165 341.994 248.665V252.879H341.993Z" fill="#50555C"/>
<path fill-rule="evenodd" clip-rule="evenodd" d="M34.2291 247.644C33.8119 247.639 33.41 247.802 33.1136 248.095C32.8172 248.389 32.6509 248.789 32.652 249.207C32.652 250.078 33.3581 250.784 34.2291 250.784C35.1002 250.784 35.8063 250.078 35.8063 249.207C35.8074 248.789 35.6411 248.389 35.3447 248.095C35.0482 247.802 34.6464 247.639 34.2291 247.644ZM47.4966 255.825C46.7777 259.71 43.0284 262.953 38.4981 262.953C34.004 262.953 30.2766 259.757 29.5156 255.916C29.3613 254.958 30.1464 254.732 30.8858 254.91C33.3596 255.626 35.9249 255.974 38.4998 255.943C41.0689 255.973 43.6285 255.626 46.097 254.914C46.8158 254.732 47.5857 254.937 47.4966 255.825ZM45.0564 256.365C44.9862 256.392 44.915 256.412 44.8431 256.436C44.8357 256.439 45.0733 256.362 45.0662 256.365C42.9316 256.953 40.7251 257.238 38.5112 257.212C35.8693 257.212 33.5065 256.919 31.8804 256.335C30.7015 255.984 30.9276 257.371 31.7562 257.796C33.8759 258.761 36.1821 259.247 38.5109 259.22C41.2811 259.22 43.7496 258.576 45.38 257.742C46.1516 257.246 46.3041 255.916 45.0564 256.365ZM42.7796 247.644C42.3623 247.639 41.9605 247.802 41.664 248.095C41.3675 248.389 41.2011 248.789 41.2022 249.207C41.1938 249.776 41.4926 250.305 41.9841 250.592C42.4755 250.879 43.0834 250.879 43.5749 250.592C44.0663 250.305 44.3651 249.776 44.3568 249.207C44.3578 248.789 44.1915 248.389 43.8951 248.096C43.5987 247.802 43.1969 247.639 42.7796 247.644ZM38.5 240C45.9558 240 52 246.044 52 253.5C52 260.956 45.9558 267 38.5 267C31.0442 267 25 260.956 25 253.5C25 246.044 31.0442 240 38.5 240ZM38.4996 241.573C45.0867 241.574 50.426 246.914 50.4255 253.501C50.425 260.088 45.0849 265.428 38.4978 265.427C31.9107 265.427 26.571 260.087 26.571 253.5C26.5711 250.337 27.8279 247.303 30.065 245.066C32.3021 242.829 35.3361 241.573 38.4996 241.573Z" fill="#50555C"/>
<g clip-path="url(#clip2_17_1729)">
<rect x="284" y="170" width="88" height="42" fill="black" fill-opacity="0.01"/>
<g filter="url(#filter0_d_17_1729)">
<rect x="284" y="170" width="88" height="42" rx="4.6" fill="#ADB3BC"/>
</g>
<path d="M324.297 197.144C322.483 197.144 321.102 196.632 320.153 195.608C319.203 194.584 318.729 193.171 318.729 191.368C318.729 190.173 318.942 189.144 319.369 188.28C319.795 187.416 320.409 186.749 321.209 186.28C322.009 185.811 322.974 185.576 324.105 185.576C324.905 185.576 325.641 185.699 326.313 185.944C326.985 186.179 327.555 186.525 328.025 186.984L327.513 188.04C327.001 187.592 326.473 187.267 325.929 187.064C325.385 186.861 324.771 186.76 324.089 186.76C322.809 186.76 321.827 187.165 321.145 187.976C320.462 188.776 320.121 189.907 320.121 191.368C320.121 192.861 320.473 194.003 321.177 194.792C321.881 195.581 322.931 195.976 324.329 195.976C325.235 195.976 326.105 195.821 326.937 195.512V192.168H324.073V191.128H328.073V196.344C327.774 196.504 327.411 196.643 326.985 196.76C326.569 196.877 326.126 196.968 325.657 197.032C325.187 197.107 324.734 197.144 324.297 197.144ZM333.805 197.144C333.047 197.144 332.391 196.979 331.837 196.648C331.282 196.317 330.85 195.853 330.541 195.256C330.242 194.648 330.093 193.933 330.093 193.112C330.093 192.291 330.242 191.581 330.541 190.984C330.85 190.376 331.282 189.907 331.837 189.576C332.391 189.245 333.047 189.08 333.805 189.08C334.551 189.08 335.202 189.245 335.757 189.576C336.322 189.907 336.754 190.376 337.053 190.984C337.362 191.581 337.517 192.291 337.517 193.112C337.517 193.933 337.362 194.648 337.053 195.256C336.754 195.853 336.322 196.317 335.757 196.648C335.202 196.979 334.551 197.144 333.805 197.144ZM333.805 196.104C334.53 196.104 335.111 195.848 335.549 195.336C335.986 194.813 336.205 194.072 336.205 193.112C336.205 192.141 335.986 191.4 335.549 190.888C335.111 190.376 334.53 190.12 333.805 190.12C333.069 190.12 332.482 190.376 332.045 190.888C331.618 191.4 331.405 192.141 331.405 193.112C331.405 194.072 331.618 194.813 332.045 195.336C332.482 195.848 333.069 196.104 333.805 196.104Z" fill="black"/>
</g>
<g clip-path="url(#clip3_17_1729)">
<rect x="96" y="170" width="182" height="33.9231" fill="black" fill-opacity="0.01"/>
<g filter="url(#filter1_d_17_1729)">
<rect x="96" y="170" width="182" height="42" rx="4.6" fill="#FCFCFE"/>
</g>
<path d="M170.21 196.836C169.602 196.836 169.026 196.751 168.482 196.58C167.938 196.41 167.49 196.17 167.138 195.86L167.554 194.948C167.938 195.258 168.359 195.487 168.818 195.636C169.287 195.775 169.762 195.844 170.242 195.844C170.85 195.844 171.308 195.732 171.618 195.508C171.927 195.284 172.082 194.98 172.082 194.596C172.082 194.298 171.98 194.063 171.778 193.892C171.575 193.711 171.255 193.572 170.818 193.476L169.362 193.156C168.039 192.868 167.378 192.186 167.378 191.108C167.378 190.404 167.655 189.839 168.21 189.412C168.775 188.986 169.511 188.772 170.418 188.772C170.951 188.772 171.458 188.858 171.938 189.028C172.428 189.188 172.834 189.428 173.154 189.748L172.722 190.66C172.412 190.372 172.05 190.154 171.634 190.004C171.228 189.844 170.823 189.764 170.418 189.764C169.82 189.764 169.367 189.882 169.058 190.116C168.748 190.351 168.594 190.66 168.594 191.044C168.594 191.642 168.988 192.026 169.778 192.196L171.234 192.5C171.916 192.65 172.434 192.89 172.786 193.22C173.138 193.54 173.314 193.978 173.314 194.532C173.314 195.247 173.031 195.812 172.466 196.228C171.9 196.634 171.148 196.836 170.21 196.836ZM175.284 199.572V188.916H176.548V190.308C176.782 189.828 177.129 189.455 177.588 189.188C178.057 188.911 178.601 188.772 179.22 188.772C179.913 188.772 180.516 188.938 181.028 189.268C181.55 189.588 181.95 190.052 182.228 190.66C182.516 191.258 182.66 191.972 182.66 192.804C182.66 193.626 182.516 194.34 182.228 194.948C181.95 195.546 181.55 196.01 181.028 196.34C180.516 196.671 179.913 196.836 179.22 196.836C178.622 196.836 178.089 196.703 177.62 196.436C177.15 196.17 176.804 195.802 176.58 195.332V199.572H175.284ZM178.948 195.796C179.673 195.796 180.254 195.54 180.692 195.028C181.129 194.506 181.348 193.764 181.348 192.804C181.348 191.834 181.129 191.092 180.692 190.58C180.254 190.068 179.673 189.812 178.948 189.812C178.222 189.812 177.641 190.068 177.204 190.58C176.766 191.092 176.548 191.834 176.548 192.804C176.548 193.764 176.766 194.506 177.204 195.028C177.641 195.54 178.222 195.796 178.948 195.796ZM187.055 196.836C186.521 196.836 186.041 196.735 185.615 196.532C185.199 196.319 184.868 196.031 184.623 195.668C184.377 195.306 184.255 194.9 184.255 194.452C184.255 193.887 184.399 193.439 184.687 193.108C184.985 192.778 185.471 192.543 186.143 192.404C186.825 192.255 187.753 192.18 188.927 192.18H189.439V191.684C189.439 191.023 189.3 190.548 189.023 190.26C188.756 189.962 188.324 189.812 187.727 189.812C187.257 189.812 186.804 189.882 186.367 190.02C185.929 190.148 185.481 190.362 185.023 190.66L184.575 189.716C184.98 189.428 185.471 189.199 186.047 189.028C186.633 188.858 187.193 188.772 187.727 188.772C188.729 188.772 189.471 189.018 189.951 189.508C190.441 189.999 190.687 190.762 190.687 191.796V196.692H189.471V195.348C189.268 195.807 188.953 196.17 188.527 196.436C188.111 196.703 187.62 196.836 187.055 196.836ZM187.263 195.86C187.903 195.86 188.425 195.642 188.831 195.204C189.236 194.756 189.439 194.191 189.439 193.508V193.028H188.943C188.079 193.028 187.396 193.071 186.895 193.156C186.404 193.231 186.057 193.37 185.855 193.572C185.663 193.764 185.567 194.031 185.567 194.372C185.567 194.81 185.716 195.167 186.015 195.444C186.324 195.722 186.74 195.86 187.263 195.86ZM196.382 196.836C195.603 196.836 194.931 196.671 194.366 196.34C193.801 195.999 193.363 195.524 193.054 194.916C192.755 194.298 192.606 193.578 192.606 192.756C192.606 191.519 192.942 190.548 193.614 189.844C194.286 189.13 195.209 188.772 196.382 188.772C196.862 188.772 197.337 188.858 197.806 189.028C198.275 189.199 198.665 189.439 198.974 189.748L198.526 190.692C198.217 190.394 197.875 190.175 197.502 190.036C197.139 189.898 196.793 189.828 196.462 189.828C195.651 189.828 195.027 190.084 194.59 190.596C194.153 191.098 193.934 191.823 193.934 192.772C193.934 193.7 194.153 194.436 194.59 194.98C195.027 195.514 195.651 195.78 196.462 195.78C196.793 195.78 197.139 195.711 197.502 195.572C197.875 195.434 198.217 195.21 198.526 194.9L198.974 195.844C198.665 196.154 198.27 196.399 197.79 196.58C197.321 196.751 196.851 196.836 196.382 196.836ZM203.835 196.836C202.608 196.836 201.637 196.479 200.923 195.764C200.208 195.039 199.851 194.058 199.851 192.82C199.851 192.02 200.011 191.316 200.331 190.708C200.651 190.09 201.088 189.615 201.643 189.284C202.208 188.943 202.859 188.772 203.595 188.772C204.651 188.772 205.477 189.114 206.075 189.796C206.672 190.468 206.971 191.396 206.971 192.58V193.076H201.115C201.157 193.962 201.413 194.639 201.883 195.108C202.352 195.567 203.003 195.796 203.835 195.796C204.304 195.796 204.752 195.727 205.179 195.588C205.605 195.439 206.011 195.199 206.395 194.868L206.843 195.78C206.491 196.111 206.043 196.372 205.499 196.564C204.955 196.746 204.4 196.836 203.835 196.836ZM203.627 189.732C202.891 189.732 202.309 189.962 201.883 190.42C201.456 190.879 201.205 191.482 201.131 192.228H205.851C205.819 191.439 205.611 190.826 205.227 190.388C204.853 189.951 204.32 189.732 203.627 189.732Z" fill="black"/>
</g>
<g clip-path="url(#clip4_17_1729)">
<rect x="3" y="170" width="87" height="42" fill="black" fill-opacity="0.01"/>
<g filter="url(#filter2_d_17_1729)">
<rect x="3" y="170" width="87" height="42" rx="4.6" fill="#ADB3BC"/>
</g>
<path d="M34.4134 198V196.88H36.9894V188.304L34.9574 189.584L34.3974 188.608L37.3574 186.72H38.3014V196.88H40.7174V198H34.4134ZM43.1431 198V197.008L46.9991 192.848C47.5431 192.251 47.9325 191.707 48.1671 191.216C48.4125 190.725 48.5351 190.224 48.5351 189.712C48.5351 188.4 47.7725 187.744 46.2471 187.744C45.1058 187.744 44.0978 188.171 43.2231 189.024L42.7271 188C43.1431 187.573 43.6711 187.232 44.3111 186.976C44.9618 186.709 45.6445 186.576 46.3591 186.576C47.4898 186.576 48.3538 186.843 48.9511 187.376C49.5591 187.899 49.8631 188.645 49.8631 189.616C49.8631 190.288 49.6978 190.949 49.3671 191.6C49.0365 192.24 48.5298 192.923 47.8471 193.648L44.8231 196.88H50.3271V198H43.1431ZM55.6489 198.144C54.9022 198.144 54.1929 198.032 53.5209 197.808C52.8489 197.573 52.2835 197.237 51.8249 196.8L52.3049 195.76C52.8275 196.187 53.3555 196.496 53.8889 196.688C54.4222 196.88 54.9982 196.976 55.6169 196.976C56.4275 196.976 57.0462 196.8 57.4729 196.448C57.9102 196.085 58.1289 195.557 58.1289 194.864C58.1289 194.203 57.9102 193.701 57.4729 193.36C57.0355 193.019 56.4009 192.848 55.5689 192.848H53.9049V191.712H55.4569C56.1822 191.712 56.7529 191.525 57.1689 191.152C57.5955 190.768 57.8089 190.245 57.8089 189.584C57.8089 188.997 57.6115 188.544 57.2169 188.224C56.8329 187.904 56.2835 187.744 55.5689 187.744C54.3955 187.744 53.3715 188.171 52.4969 189.024L52.0169 188C52.4329 187.552 52.9609 187.205 53.6009 186.96C54.2515 186.704 54.9342 186.576 55.6489 186.576C56.7369 186.576 57.5849 186.832 58.1929 187.344C58.8115 187.856 59.1209 188.565 59.1209 189.472C59.1209 190.101 58.9609 190.656 58.6409 191.136C58.3209 191.605 57.8782 191.947 57.3129 192.16C57.9849 192.341 58.5075 192.677 58.8809 193.168C59.2542 193.648 59.4409 194.245 59.4409 194.96C59.4409 195.931 59.0995 196.704 58.4169 197.28C57.7449 197.856 56.8222 198.144 55.6489 198.144Z" fill="black"/>
</g>
<g clip-path="url(#clip5_17_1729)">
<g clip-path="url(#clip6_17_1729)">
<rect x="330" y="116" width="42" height="42" fill="black" fill-opacity="0.01"/>
<g filter="url(#filter3_d_17_1729)">
<rect x="330" y="116" width="42" height="42" rx="4.6" fill="#ADB3BC"/>
</g>
</g>
<path fill-rule="evenodd" clip-rule="evenodd" d="M343.213 132.778C343.198 132.792 343.169 132.82 343.136 132.852C343.113 132.875 343.094 132.894 343.056 132.933L340.912 135.076C340.856 135.134 340.817 135.174 340.727 135.265C340.676 135.315 340.639 135.354 340.559 135.439C340.411 135.582 340.254 135.754 340.108 135.935C339.969 136.081 339.859 136.252 339.782 136.438C339.623 136.922 339.623 137.393 339.764 137.83L339.783 137.88C339.861 138.065 339.971 138.234 340.108 138.379C340.254 138.559 340.411 138.731 340.576 138.893C340.639 138.961 340.676 138.999 340.727 139.05L340.912 139.236L342.866 141.193C342.958 141.284 343.003 141.329 343.055 141.378C343.11 141.437 343.168 141.494 343.227 141.549C343.237 141.559 345.727 144.048 345.727 144.048C345.804 144.124 345.866 144.185 346.006 144.32C346.021 144.334 346.043 144.357 346.05 144.364C346.086 144.402 346.107 144.424 346.121 144.438C346.411 144.729 346.745 144.973 347.11 145.162C347.485 145.348 347.874 145.477 348.276 145.547C348.655 145.609 349.031 145.643 349.408 145.648C349.473 145.649 349.527 145.65 349.647 145.651C349.763 145.652 349.814 145.653 349.877 145.654L357.297 145.654C357.374 145.653 357.426 145.652 357.543 145.651C357.664 145.65 357.719 145.649 357.788 145.648C358.166 145.641 358.545 145.607 358.92 145.545C359.33 145.476 359.725 145.345 360.094 145.158C360.465 144.969 360.805 144.723 361.098 144.427C361.391 144.134 361.636 143.796 361.826 143.427C362.013 143.053 362.141 142.66 362.21 142.254C362.273 141.875 362.307 141.495 362.311 141.113C362.314 141.035 362.315 140.96 362.318 140.794C362.319 140.715 362.319 140.68 362.32 140.638L362.32 133.648C362.319 133.594 362.319 133.559 362.318 133.482L362.317 133.401C362.315 133.3 362.313 133.224 362.31 133.148C362.306 132.789 362.274 132.413 362.215 132.042C362.142 131.63 362.014 131.241 361.833 130.875C361.642 130.502 361.398 130.168 361.107 129.877C360.816 129.584 360.479 129.338 360.11 129.15C359.743 128.967 359.356 128.838 358.956 128.767C358.572 128.706 358.195 128.674 357.818 128.67C357.693 128.664 357.583 128.663 357.338 128.663C357.258 128.662 357.165 128.661 357.059 128.661C356.98 128.66 356.917 128.66 356.775 128.66H350.453C350.169 128.66 350.041 128.661 349.879 128.663C349.645 128.663 349.534 128.664 349.392 128.67C349.033 128.674 348.657 128.706 348.285 128.766C347.874 128.838 347.485 128.966 347.12 129.148C346.745 129.342 346.411 129.586 346.121 129.877C346.107 129.891 346.086 129.912 346.052 129.949C346.043 129.958 346.006 129.995 346.006 129.995C345.866 130.13 345.804 130.19 345.727 130.267L345.406 130.588L343.272 132.726C343.253 132.741 343.233 132.759 343.213 132.778ZM356.775 129.919C356.915 129.919 356.977 129.919 357.054 129.919C357.154 129.92 357.243 129.921 357.328 129.922C357.566 129.922 357.665 129.923 357.785 129.928C358.119 129.932 358.435 129.959 358.747 130.009C359.016 130.057 359.288 130.147 359.543 130.274C359.789 130.4 360.017 130.566 360.215 130.765C360.415 130.965 360.581 131.193 360.709 131.443C360.833 131.693 360.924 131.967 360.973 132.25C361.021 132.551 361.048 132.866 361.052 133.181C361.055 133.262 361.056 133.328 361.058 133.42L361.059 133.498C361.06 133.579 361.061 133.615 361.061 133.661L361.061 140.625C361.061 140.659 361.06 140.696 361.059 140.778C361.057 140.933 361.056 141 361.052 141.082C361.049 141.417 361.021 141.733 360.969 142.046C360.921 142.326 360.831 142.601 360.703 142.859C360.576 143.106 360.407 143.337 360.206 143.539C360.006 143.74 359.776 143.908 359.524 144.036C359.268 144.166 358.995 144.256 358.712 144.304C358.401 144.355 358.083 144.384 357.765 144.389C357.699 144.391 357.648 144.391 357.53 144.392C357.409 144.394 357.355 144.394 357.285 144.396L349.889 144.396C349.833 144.394 349.78 144.394 349.659 144.392C349.544 144.391 349.493 144.391 349.43 144.389C349.111 144.385 348.797 144.357 348.486 144.306C348.211 144.258 347.937 144.168 347.68 144.04C347.439 143.915 347.21 143.747 347.011 143.548L346.962 143.496C346.913 143.445 346.892 143.423 346.868 143.402C346.742 143.281 346.685 143.225 346.618 143.157L344.122 140.662C344.099 140.641 344.085 140.628 344.076 140.62C344.031 140.577 343.994 140.539 343.959 140.502C343.887 140.433 343.847 140.394 343.757 140.303L341.803 138.346L341.617 138.16C341.578 138.121 341.547 138.089 341.476 138.013C341.321 137.86 341.191 137.717 341.069 137.567L341.031 137.524C340.999 137.491 340.973 137.454 340.953 137.413C340.905 137.245 340.905 137.067 340.954 136.899C340.973 136.86 340.998 136.825 341.028 136.794L341.071 136.745C341.191 136.596 341.32 136.455 341.457 136.321C341.547 136.226 341.578 136.193 341.617 136.155C341.715 136.056 341.759 136.012 341.814 135.954L343.757 134.012L343.946 133.823C343.983 133.785 343.999 133.769 344.02 133.749L344.061 133.712C344.092 133.684 344.108 133.669 344.125 133.653L346.297 131.478L346.618 131.157C346.685 131.089 346.742 131.034 346.868 130.913C346.892 130.891 346.913 130.869 346.96 130.82L347.011 130.767C347.21 130.567 347.439 130.4 347.689 130.27C347.937 130.147 348.211 130.057 348.494 130.007C348.795 129.959 349.11 129.932 349.424 129.928C349.562 129.923 349.662 129.922 349.889 129.922C350.052 129.92 350.176 129.919 350.453 129.919H356.775ZM356.864 134.2C356.864 134.353 356.803 134.495 356.7 134.598L356.706 134.605L354.16 137.153L356.645 139.633C356.667 139.65 356.688 139.668 356.709 139.688C356.87 139.849 356.919 140.092 356.832 140.303C356.745 140.514 356.539 140.652 356.31 140.652C356.158 140.652 356.016 140.591 355.912 140.488L355.906 140.494L353.362 137.952L350.821 140.496L350.813 140.488C350.762 140.538 350.701 140.579 350.633 140.607C350.421 140.695 350.177 140.646 350.015 140.483C349.795 140.262 349.795 139.905 350.015 139.684C350.047 139.652 350.082 139.625 350.119 139.602L352.564 137.154L350.015 134.609L350.023 134.6C349.973 134.549 349.932 134.488 349.904 134.42C349.817 134.208 349.865 133.964 350.028 133.802C350.249 133.582 350.606 133.582 350.827 133.802C350.86 133.835 350.888 133.871 350.912 133.909L353.362 136.355L355.837 133.877C355.856 133.851 355.876 133.826 355.9 133.802C356.061 133.64 356.304 133.592 356.515 133.679C356.726 133.766 356.864 133.972 356.864 134.2Z" fill="black"/>
</g>
<g clip-path="url(#clip7_17_1729)">
<g clip-path="url(#clip8_17_1729)">
<rect x="3" y="116" width="42" height="42" fill="black" fill-opacity="0.01"/>
<g filter="url(#filter4_d_17_1729)">
<rect x="3" y="116" width="42" height="42" rx="4.6" fill="#FCFCFE"/>
</g>
</g>
<path d="M32.8002 138.664H28.6031V142.634C28.6031 142.714 28.6031 142.787 28.6031 142.864C28.6031 142.93 28.6031 142.994 28.6005 143.06C28.5986 143.203 28.5863 143.346 28.5635 143.487C28.5387 143.627 28.4938 143.763 28.4302 143.89C28.3651 144.017 28.28 144.133 28.1782 144.233C28.076 144.333 27.9593 144.418 27.832 144.483C27.7031 144.546 27.5661 144.591 27.4251 144.616C27.2836 144.639 27.1407 144.651 26.9975 144.653C26.9309 144.653 26.8662 144.656 26.8009 144.656H21.4018C21.3351 144.656 21.2708 144.653 21.2051 144.653C21.0619 144.651 20.9191 144.639 20.7776 144.616C20.6366 144.591 20.4998 144.546 20.371 144.483C20.2437 144.418 20.127 144.333 20.0248 144.233C19.9229 144.133 19.8379 144.017 19.7728 143.89C19.7092 143.763 19.6643 143.627 19.6395 143.487C19.6166 143.346 19.6041 143.203 19.6022 143.06C19.6022 142.994 19.5995 142.93 19.5995 142.864C19.5995 142.787 19.5995 142.714 19.5995 142.634V138.664H15.3361C14.9049 138.664 14.3517 137.735 14.8696 137.218C15.3098 136.782 22.2289 129.883 23.6769 128.447C23.7833 128.316 23.9336 128.228 24.0998 128.2H24.1112C24.2549 128.208 24.3885 128.277 24.4777 128.39C25.9257 129.826 32.8685 136.782 33.3091 137.218C33.8273 137.735 33.3934 138.664 32.8002 138.664Z" fill="black"/>
</g>
<g clip-path="url(#clip9_17_1729)">
<g filter="url(#filter5_d_17_1729)">
<rect x="285" y="116" width="32" height="42" rx="4.6" fill="#FCFCFE"/>
</g>
<path d="M293.878 145V129.137H295.431L301.528 140.59L307.581 129.137H309.133V145H307.423V132.603L302.136 142.547H300.921L295.566 132.625V145H293.878Z" fill="black"/>
</g>
<g clip-path="url(#clip10_17_1729)">
<g filter="url(#filter6_d_17_1729)">
<rect x="247" y="116" width="32" height="42" rx="4.6" fill="#FCFCFE"/>
</g>
<path d="M257.63 145V129.137H259.07L268.632 141.895V129.137H270.342V145H268.947L259.362 132.197V145H257.63Z" fill="black"/>
</g>
<g clip-path="url(#clip11_17_1729)">
<g filter="url(#filter7_d_17_1729)">
<rect x="209" y="116" width="32" height="42" rx="4.6" fill="#FCFCFE"/>
</g>
<path d="M219.855 145V129.137H226.2C227.835 129.137 229.095 129.505 229.98 130.24C230.88 130.96 231.33 131.972 231.33 133.277C231.33 134.147 231.105 134.89 230.655 135.505C230.205 136.12 229.582 136.57 228.787 136.855C229.702 137.095 230.415 137.537 230.925 138.182C231.45 138.827 231.712 139.645 231.712 140.635C231.712 142.045 231.255 143.125 230.34 143.875C229.425 144.625 228.135 145 226.47 145H219.855ZM221.655 136.225H225.93C228.315 136.225 229.507 135.295 229.507 133.435C229.507 131.56 228.315 130.622 225.93 130.622H221.655V136.225ZM221.655 143.515H226.29C228.69 143.515 229.89 142.547 229.89 140.612C229.89 138.677 228.69 137.71 226.29 137.71H221.655V143.515Z" fill="black"/>
</g>
<g clip-path="url(#clip12_17_1729)">
<g filter="url(#filter8_d_17_1729)">
<rect x="172" y="116" width="32" height="42" rx="4.6" fill="#FCFCFE"/>
</g>
<path d="M187.651 145L180.721 129.137H182.701L188.529 142.66L194.334 129.137H196.269L189.316 145H187.651Z" fill="black"/>
</g>
<g clip-path="url(#clip13_17_1729)">
<g filter="url(#filter9_d_17_1729)">
<rect x="134" y="116" width="32" height="42" rx="4.6" fill="#FCFCFE"/>
</g>
<path d="M151.75 145.203C150.19 145.203 148.855 144.873 147.745 144.212C146.635 143.552 145.78 142.615 145.18 141.4C144.595 140.185 144.303 138.737 144.303 137.057C144.303 135.392 144.595 133.952 145.18 132.737C145.78 131.522 146.635 130.585 147.745 129.925C148.855 129.265 150.19 128.935 151.75 128.935C152.845 128.935 153.85 129.107 154.765 129.452C155.695 129.797 156.483 130.3 157.128 130.96L156.408 132.467C155.718 131.822 154.998 131.357 154.248 131.072C153.513 130.772 152.695 130.622 151.795 130.622C150.01 130.622 148.645 131.185 147.7 132.31C146.755 133.435 146.283 135.017 146.283 137.057C146.283 139.112 146.755 140.702 147.7 141.827C148.645 142.952 150.01 143.515 151.795 143.515C152.695 143.515 153.513 143.372 154.248 143.087C154.998 142.787 155.718 142.315 156.408 141.67L157.128 143.177C156.483 143.822 155.695 144.325 154.765 144.685C153.85 145.03 152.845 145.203 151.75 145.203Z" fill="black"/>
</g>
<g clip-path="url(#clip14_17_1729)">
<g filter="url(#filter10_d_17_1729)">
<rect x="97" y="116" width="32" height="42" rx="4.6" fill="#FCFCFE"/>
</g>
<path d="M106.908 145L112.938 136.9L107.201 129.137H109.361L114.018 135.505L118.631 129.137H120.813L115.053 136.9L121.083 145H118.901L113.996 138.295L109.113 145H106.908Z" fill="black"/>
</g>
<g clip-path="url(#clip15_17_1729)">
<g filter="url(#filter11_d_17_1729)">
<rect x="59" y="116" width="32" height="42" rx="4.6" fill="#FCFCFE"/>
</g>
<path d="M69.9552 145V143.627L79.0677 130.735H69.9552V129.137H81.3177V130.51L72.1827 143.402H81.6327V145H69.9552Z" fill="black"/>
</g>
<g clip-path="url(#clip16_17_1729)">
<g filter="url(#filter12_d_17_1729)">
<rect x="322" y="62" width="32" height="42" rx="4.6" fill="#FCFCFE"/>
</g>
<path d="M334.849 91V75.1375H336.694V89.38H344.772V91H334.849Z" fill="black"/>
</g>
<g clip-path="url(#clip17_17_1729)">
<g filter="url(#filter13_d_17_1729)">
<rect x="284" y="62" width="32" height="42" rx="4.6" fill="#FCFCFE"/>
</g>
<path d="M295.926 91V75.1375H297.771V82.3375H297.816L305.511 75.1375H307.874L299.594 82.855L308.369 91H305.939L297.816 83.53H297.771V91H295.926Z" fill="black"/>
</g>
<g clip-path="url(#clip18_17_1729)">
<g filter="url(#filter14_d_17_1729)">
<rect x="247" y="62" width="32" height="42" rx="4.6" fill="#FCFCFE"/>
</g>
<path d="M259.763 91.1575L259.628 89.605L260.978 89.515C261.743 89.455 262.328 89.1925 262.733 88.7275C263.138 88.2475 263.34 87.595 263.34 86.77V75.1375H265.185V86.7925C265.185 88.0975 264.848 89.1175 264.173 89.8525C263.498 90.5725 262.515 90.9775 261.225 91.0675L259.763 91.1575Z" fill="black"/>
</g>
<g clip-path="url(#clip19_17_1729)">
<g filter="url(#filter15_d_17_1729)">
<rect x="209" y="62" width="32" height="42" rx="4.6" fill="#FCFCFE"/>
</g>
<path d="M218.899 91V75.1375H220.744V82.1575H230.262V75.1375H232.107V91H230.262V83.755H220.744V91H218.899Z" fill="black"/>
</g>
<g clip-path="url(#clip20_17_1729)">
<g filter="url(#filter16_d_17_1729)">
<rect x="172" y="62" width="32" height="42" rx="4.6" fill="#FCFCFE"/>
</g>
<path d="M190.04 91.2025C187.49 91.2025 185.547 90.4825 184.212 89.0425C182.877 87.6025 182.21 85.615 182.21 83.08C182.21 81.4 182.51 79.9525 183.11 78.7375C183.71 77.5225 184.572 76.585 185.697 75.925C186.822 75.265 188.18 74.935 189.77 74.935C190.895 74.935 191.93 75.1075 192.875 75.4525C193.82 75.7825 194.622 76.27 195.282 76.915L194.562 78.4C193.842 77.77 193.1 77.3125 192.335 77.0275C191.57 76.7425 190.707 76.6 189.747 76.6C187.947 76.6 186.567 77.17 185.607 78.31C184.647 79.435 184.167 81.025 184.167 83.08C184.167 85.18 184.662 86.785 185.652 87.895C186.642 89.005 188.12 89.56 190.085 89.56C191.36 89.56 192.582 89.3425 193.752 88.9075V84.205H189.725V82.7425H195.35V90.0775C194.93 90.3025 194.42 90.4975 193.82 90.6625C193.235 90.8275 192.612 90.955 191.952 91.045C191.292 91.15 190.655 91.2025 190.04 91.2025Z" fill="black"/>
</g>
<g clip-path="url(#clip21_17_1729)">
<g filter="url(#filter17_d_17_1729)">
<rect x="134" y="62" width="32" height="42" rx="4.6" fill="#FCFCFE"/>
</g>
<path d="M146.794 91V75.1375H156.604V76.69H148.639V82.225H156.154V83.7775H148.639V91H146.794Z" fill="black"/>
</g>
<g clip-path="url(#clip22_17_1729)">
<g filter="url(#filter18_d_17_1729)">
<rect x="97" y="62" width="32" height="42" rx="4.6" fill="#FCFCFE"/>
</g>
<path d="M107.608 91V75.1375H112.963C115.528 75.1375 117.508 75.82 118.903 77.185C120.298 78.535 120.995 80.4925 120.995 83.0575C120.995 85.6225 120.298 87.5875 118.903 88.9525C117.508 90.3175 115.528 91 112.963 91H107.608ZM109.453 89.425H112.828C116.968 89.425 119.038 87.3025 119.038 83.0575C119.038 78.8275 116.968 76.7125 112.828 76.7125H109.453V89.425Z" fill="black"/>
</g>
<g clip-path="url(#clip23_17_1729)">
<g filter="url(#filter19_d_17_1729)">
<rect x="59" y="62" width="32" height="42" rx="4.6" fill="#FCFCFE"/>
</g>
<path d="M75.6661 91.2025C74.4211 91.2025 73.2961 91.045 72.2911 90.73C71.2861 90.4 70.4161 89.9275 69.6811 89.3125L70.3336 87.8275C71.0986 88.4125 71.9011 88.8475 72.7411 89.1325C73.5811 89.4175 74.5561 89.56 75.6661 89.56C77.0161 89.56 78.0136 89.3125 78.6586 88.8175C79.3186 88.3075 79.6486 87.64 79.6486 86.815C79.6486 86.155 79.4086 85.63 78.9286 85.24C78.4636 84.85 77.6761 84.5425 76.5661 84.3175L74.2261 83.845C72.8161 83.545 71.7586 83.0575 71.0536 82.3825C70.3636 81.6925 70.0186 80.7775 70.0186 79.6375C70.0186 78.6925 70.2586 77.8675 70.7386 77.1625C71.2336 76.4575 71.9161 75.91 72.7861 75.52C73.6561 75.13 74.6611 74.935 75.8011 74.935C76.8661 74.935 77.8561 75.1075 78.7711 75.4525C79.6861 75.7825 80.4586 76.2625 81.0886 76.8925L80.4361 78.3325C79.7611 77.7175 79.0486 77.275 78.2986 77.005C77.5486 76.72 76.7086 76.5775 75.7786 76.5775C74.5936 76.5775 73.6486 76.855 72.9436 77.41C72.2386 77.95 71.8861 78.67 71.8861 79.57C71.8861 80.29 72.1036 80.86 72.5386 81.28C72.9886 81.7 73.7161 82.0075 74.7211 82.2025L77.0611 82.6975C78.5761 83.0125 79.6936 83.4925 80.4136 84.1375C81.1486 84.7675 81.5161 85.63 81.5161 86.725C81.5161 87.61 81.2761 88.39 80.7961 89.065C80.3311 89.74 79.6561 90.265 78.7711 90.64C77.9011 91.015 76.8661 91.2025 75.6661 91.2025Z" fill="black"/>
</g>
<g clip-path="url(#clip24_17_1729)">
<g filter="url(#filter20_d_17_1729)">
<rect x="22" y="62" width="32" height="42" rx="4.6" fill="#FCFCFE"/>
</g>
<path d="M31.2317 91L38.2292 75.1375H39.8042L46.8017 91H44.8892L43.1342 86.95H34.8767L33.1442 91H31.2317ZM38.9942 77.2975L35.5517 85.3975H42.4817L39.0392 77.2975H38.9942Z" fill="black"/>
</g>
<g clip-path="url(#clip25_17_1729)">
<g filter="url(#filter21_d_17_1729)">
<rect x="340" y="8" width="32" height="42" rx="4.6" fill="#FCFCFE"/>
</g>
<path d="M351.838 37V21.1375H358.116C359.826 21.1375 361.131 21.55 362.031 22.375C362.946 23.2 363.403 24.3775 363.403 25.9075C363.403 27.4225 362.946 28.6 362.031 29.44C361.131 30.265 359.826 30.6775 358.116 30.6775H353.683V37H351.838ZM353.683 29.125H357.891C360.351 29.125 361.581 28.0525 361.581 25.9075C361.581 23.7475 360.351 22.6675 357.891 22.6675H353.683V29.125Z" fill="black"/>
</g>
<g clip-path="url(#clip26_17_1729)">
<g filter="url(#filter22_d_17_1729)">
<rect x="303" y="8" width="32" height="42" rx="4.6" fill="#FCFCFE"/>
</g>
<path d="M319.493 37.2025C318.023 37.2025 316.741 36.8725 315.646 36.2125C314.566 35.5375 313.726 34.5925 313.126 33.3775C312.541 32.1625 312.248 30.7225 312.248 29.0575C312.248 27.3925 312.541 25.9525 313.126 24.7375C313.711 23.5225 314.543 22.585 315.623 21.925C316.718 21.265 318.008 20.935 319.493 20.935C320.993 20.935 322.283 21.265 323.363 21.925C324.458 22.585 325.298 23.5225 325.883 24.7375C326.483 25.9375 326.783 27.37 326.783 29.035C326.783 30.7 326.483 32.1475 325.883 33.3775C325.283 34.5925 324.436 35.5375 323.341 36.2125C322.261 36.8725 320.978 37.2025 319.493 37.2025ZM319.493 35.56C321.188 35.56 322.501 34.99 323.431 33.85C324.361 32.71 324.826 31.1125 324.826 29.0575C324.826 27.0025 324.361 25.4125 323.431 24.2875C322.501 23.1475 321.188 22.5775 319.493 22.5775C317.828 22.5775 316.531 23.1475 315.601 24.2875C314.671 25.4125 314.206 27.0025 314.206 29.0575C314.206 31.0975 314.671 32.695 315.601 33.85C316.531 34.99 317.828 35.56 319.493 35.56Z" fill="black"/>
</g>
<g clip-path="url(#clip27_17_1729)">
<g filter="url(#filter23_d_17_1729)">
<rect x="265" y="8" width="32" height="42" rx="4.6" fill="#FCFCFE"/>
</g>
<path d="M280.579 37V21.1375H282.424V37H280.579Z" fill="black"/>
</g>
<g clip-path="url(#clip28_17_1729)">
<g filter="url(#filter24_d_17_1729)">
<rect x="228" y="8" width="32" height="42" rx="4.6" fill="#FCFCFE"/>
</g>
<path d="M245.028 37.2025C242.943 37.2025 241.36 36.655 240.28 35.56C239.2 34.45 238.66 32.8375 238.66 30.7225V21.1375H240.505V30.6325C240.505 33.9175 242.013 35.56 245.028 35.56C248.013 35.56 249.505 33.9175 249.505 30.6325V21.1375H251.35V30.7225C251.35 32.8375 250.81 34.45 249.73 35.56C248.665 36.655 247.098 37.2025 245.028 37.2025Z" fill="black"/>
</g>
<g clip-path="url(#clip29_17_1729)">
<g filter="url(#filter25_d_17_1729)">
<rect x="190" y="8" width="32" height="42" rx="4.6" fill="#FCFCFE"/>
</g>
<path d="M205.581 37V29.485L199.506 21.1375H201.666L206.548 27.865L211.408 21.1375H213.501L207.426 29.53V37H205.581Z" fill="black"/>
</g>
<g clip-path="url(#clip30_17_1729)">
<g filter="url(#filter26_d_17_1729)">
<rect x="153" y="8" width="32" height="42" rx="4.6" fill="#FCFCFE"/>
</g>
<path d="M168.582 37V22.735H162.822V21.1375H176.21V22.735H170.45V37H168.582Z" fill="black"/>
</g>
<g clip-path="url(#clip31_17_1729)">
<g filter="url(#filter27_d_17_1729)">
<rect x="115" y="8" width="32" height="42" rx="4.6" fill="#FCFCFE"/>
</g>
<path d="M125.932 37V21.1375H132.209C133.919 21.1375 135.224 21.535 136.124 22.33C137.039 23.125 137.497 24.2575 137.497 25.7275C137.497 26.8975 137.174 27.8575 136.529 28.6075C135.899 29.3575 134.999 29.845 133.829 30.07C134.519 30.31 135.112 30.895 135.607 31.825L138.397 37H136.372L133.627 31.915C133.282 31.285 132.884 30.8575 132.434 30.6325C131.984 30.4075 131.392 30.295 130.657 30.295H127.777V37H125.932ZM127.777 28.8325H131.939C134.429 28.8325 135.674 27.7975 135.674 25.7275C135.674 23.6875 134.429 22.6675 131.939 22.6675H127.777V28.8325Z" fill="black"/>
</g>
<g clip-path="url(#clip32_17_1729)">
<g filter="url(#filter28_d_17_1729)">
<rect x="78" y="8" width="32" height="42" rx="4.6" fill="#FCFCFE"/>
</g>
<path d="M89.8987 37V21.1375H99.9112V22.69H91.6987V28.18H99.4387V29.7325H91.6987V35.4475H99.9112V37H89.8987Z" fill="black"/>
</g>
<g clip-path="url(#clip33_17_1729)">
<g filter="url(#filter29_d_17_1729)">
<rect x="40" y="8" width="32" height="42" rx="4.6" fill="#FCFCFE"/>
</g>
<path d="M50.8509 37L45.2934 21.1375H47.2284L51.7059 34.3L56.2959 21.1375H57.7809L62.3259 34.4125L66.8934 21.1375H68.7384L63.1809 37H61.5384L57.0159 23.95L52.4484 37H50.8509Z" fill="black"/>
</g>
<g clip-path="url(#clip34_17_1729)">
<g filter="url(#filter30_d_17_1729)">
<rect x="3" y="8" width="32" height="42" rx="4.6" fill="#FCFCFE"/>
</g>
<path d="M23.8807 41.5225L21.9907 38.485C21.4807 37.63 20.6482 37.2025 19.4932 37.2025C18.0232 37.2025 16.7407 36.8725 15.6457 36.2125C14.5657 35.5375 13.7257 34.5925 13.1257 33.3775C12.5407 32.1625 12.2482 30.7225 12.2482 29.0575C12.2482 27.3925 12.5407 25.9525 13.1257 24.7375C13.7107 23.5225 14.5432 22.585 15.6232 21.925C16.7182 21.265 18.0082 20.935 19.4932 20.935C20.9932 20.935 22.2832 21.265 23.3632 21.925C24.4582 22.585 25.2982 23.5225 25.8832 24.7375C26.4832 25.9375 26.7832 27.37 26.7832 29.035C26.7832 30.97 26.3857 32.605 25.5907 33.94C24.7957 35.26 23.6932 36.19 22.2832 36.73C22.8832 36.925 23.4307 37.4425 23.9257 38.2825L25.4332 40.7125L23.8807 41.5225ZM19.4932 35.56C21.1882 35.56 22.5007 34.99 23.4307 33.85C24.3607 32.71 24.8257 31.1125 24.8257 29.0575C24.8257 27.0025 24.3607 25.4125 23.4307 24.2875C22.5007 23.1475 21.1882 22.5775 19.4932 22.5775C17.8282 22.5775 16.5307 23.1475 15.6007 24.2875C14.6707 25.4125 14.2057 27.0025 14.2057 29.0575C14.2057 31.0975 14.6707 32.695 15.6007 33.85C16.5307 34.99 17.8282 35.56 19.4932 35.56Z" fill="black"/>
</g>
</g>
<defs>
<filter id="filter0_d_17_1729" x="284" y="170" width="88" height="43" filterUnits="userSpaceOnUse" color-interpolation-filters="sRGB">
<feFlood flood-opacity="0" result="BackgroundImageFix"/>
<feColorMatrix in="SourceAlpha" type="matrix" values="0 0 0 0 0 0 0 0 0 0 0 0 0 0 0 0 0 0 127 0" result="hardAlpha"/>
<feOffset dy="1"/>
<feColorMatrix type="matrix" values="0 0 0 0 0.537255 0 0 0 0 0.541176 0 0 0 0 0.552941 0 0 0 1 0"/>
<feBlend mode="normal" in2="BackgroundImageFix" result="effect1_dropShadow_17_1729"/>
<feBlend mode="normal" in="SourceGraphic" in2="effect1_dropShadow_17_1729" result="shape"/>
</filter>
<filter id="filter1_d_17_1729" x="96" y="170" width="182" height="43" filterUnits="userSpaceOnUse" color-interpolation-filters="sRGB">
<feFlood flood-opacity="0" result="BackgroundImageFix"/>
<feColorMatrix in="SourceAlpha" type="matrix" values="0 0 0 0 0 0 0 0 0 0 0 0 0 0 0 0 0 0 127 0" result="hardAlpha"/>
<feOffset dy="1"/>
<feColorMatrix type="matrix" values="0 0 0 0 0.537255 0 0 0 0 0.541176 0 0 0 0 0.552941 0 0 0 1 0"/>
<feBlend mode="normal" in2="BackgroundImageFix" result="effect1_dropShadow_17_1729"/>
<feBlend mode="normal" in="SourceGraphic" in2="effect1_dropShadow_17_1729" result="shape"/>
</filter>
<filter id="filter2_d_17_1729" x="3" y="170" width="87" height="43" filterUnits="userSpaceOnUse" color-interpolation-filters="sRGB">
<feFlood flood-opacity="0" result="BackgroundImageFix"/>
<feColorMatrix in="SourceAlpha" type="matrix" values="0 0 0 0 0 0 0 0 0 0 0 0 0 0 0 0 0 0 127 0" result="hardAlpha"/>
<feOffset dy="1"/>
<feColorMatrix type="matrix" values="0 0 0 0 0.537255 0 0 0 0 0.541176 0 0 0 0 0.552941 0 0 0 1 0"/>
<feBlend mode="normal" in2="BackgroundImageFix" result="effect1_dropShadow_17_1729"/>
<feBlend mode="normal" in="SourceGraphic" in2="effect1_dropShadow_17_1729" result="shape"/>
</filter>
<filter id="filter3_d_17_1729" x="330" y="116" width="42" height="43" filterUnits="userSpaceOnUse" color-interpolation-filters="sRGB">
<feFlood flood-opacity="0" result="BackgroundImageFix"/>
<feColorMatrix in="SourceAlpha" type="matrix" values="0 0 0 0 0 0 0 0 0 0 0 0 0 0 0 0 0 0 127 0" result="hardAlpha"/>
<feOffset dy="1"/>
<feColorMatrix type="matrix" values="0 0 0 0 0.537255 0 0 0 0 0.541176 0 0 0 0 0.552941 0 0 0 1 0"/>
<feBlend mode="normal" in2="BackgroundImageFix" result="effect1_dropShadow_17_1729"/>
<feBlend mode="normal" in="SourceGraphic" in2="effect1_dropShadow_17_1729" result="shape"/>
</filter>
<filter id="filter4_d_17_1729" x="3" y="116" width="42" height="43" filterUnits="userSpaceOnUse" color-interpolation-filters="sRGB">
<feFlood flood-opacity="0" result="BackgroundImageFix"/>
<feColorMatrix in="SourceAlpha" type="matrix" values="0 0 0 0 0 0 0 0 0 0 0 0 0 0 0 0 0 0 127 0" result="hardAlpha"/>
<feOffset dy="1"/>
<feColorMatrix type="matrix" values="0 0 0 0 0.537255 0 0 0 0 0.541176 0 0 0 0 0.552941 0 0 0 1 0"/>
<feBlend mode="normal" in2="BackgroundImageFix" result="effect1_dropShadow_17_1729"/>
<feBlend mode="normal" in="SourceGraphic" in2="effect1_dropShadow_17_1729" result="shape"/>
</filter>
<filter id="filter5_d_17_1729" x="285" y="116" width="32" height="43" filterUnits="userSpaceOnUse" color-interpolation-filters="sRGB">
<feFlood flood-opacity="0" result="BackgroundImageFix"/>
<feColorMatrix in="SourceAlpha" type="matrix" values="0 0 0 0 0 0 0 0 0 0 0 0 0 0 0 0 0 0 127 0" result="hardAlpha"/>
<feOffset dy="1"/>
<feColorMatrix type="matrix" values="0 0 0 0 0.537255 0 0 0 0 0.541176 0 0 0 0 0.552941 0 0 0 1 0"/>
<feBlend mode="normal" in2="BackgroundImageFix" result="effect1_dropShadow_17_1729"/>
<feBlend mode="normal" in="SourceGraphic" in2="effect1_dropShadow_17_1729" result="shape"/>
</filter>
<filter id="filter6_d_17_1729" x="247" y="116" width="32" height="43" filterUnits="userSpaceOnUse" color-interpolation-filters="sRGB">
<feFlood flood-opacity="0" result="BackgroundImageFix"/>
<feColorMatrix in="SourceAlpha" type="matrix" values="0 0 0 0 0 0 0 0 0 0 0 0 0 0 0 0 0 0 127 0" result="hardAlpha"/>
<feOffset dy="1"/>
<feColorMatrix type="matrix" values="0 0 0 0 0.537255 0 0 0 0 0.541176 0 0 0 0 0.552941 0 0 0 1 0"/>
<feBlend mode="normal" in2="BackgroundImageFix" result="effect1_dropShadow_17_1729"/>
<feBlend mode="normal" in="SourceGraphic" in2="effect1_dropShadow_17_1729" result="shape"/>
</filter>
<filter id="filter7_d_17_1729" x="209" y="116" width="32" height="43" filterUnits="userSpaceOnUse" color-interpolation-filters="sRGB">
<feFlood flood-opacity="0" result="BackgroundImageFix"/>
<feColorMatrix in="SourceAlpha" type="matrix" values="0 0 0 0 0 0 0 0 0 0 0 0 0 0 0 0 0 0 127 0" result="hardAlpha"/>
<feOffset dy="1"/>
<feColorMatrix type="matrix" values="0 0 0 0 0.537255 0 0 0 0 0.541176 0 0 0 0 0.552941 0 0 0 1 0"/>
<feBlend mode="normal" in2="BackgroundImageFix" result="effect1_dropShadow_17_1729"/>
<feBlend mode="normal" in="SourceGraphic" in2="effect1_dropShadow_17_1729" result="shape"/>
</filter>
<filter id="filter8_d_17_1729" x="172" y="116" width="32" height="43" filterUnits="userSpaceOnUse" color-interpolation-filters="sRGB">
<feFlood flood-opacity="0" result="BackgroundImageFix"/>
<feColorMatrix in="SourceAlpha" type="matrix" values="0 0 0 0 0 0 0 0 0 0 0 0 0 0 0 0 0 0 127 0" result="hardAlpha"/>
<feOffset dy="1"/>
<feColorMatrix type="matrix" values="0 0 0 0 0.537255 0 0 0 0 0.541176 0 0 0 0 0.552941 0 0 0 1 0"/>
<feBlend mode="normal" in2="BackgroundImageFix" result="effect1_dropShadow_17_1729"/>
<feBlend mode="normal" in="SourceGraphic" in2="effect1_dropShadow_17_1729" result="shape"/>
</filter>
<filter id="filter9_d_17_1729" x="134" y="116" width="32" height="43" filterUnits="userSpaceOnUse" color-interpolation-filters="sRGB">
<feFlood flood-opacity="0" result="BackgroundImageFix"/>
<feColorMatrix in="SourceAlpha" type="matrix" values="0 0 0 0 0 0 0 0 0 0 0 0 0 0 0 0 0 0 127 0" result="hardAlpha"/>
<feOffset dy="1"/>
<feColorMatrix type="matrix" values="0 0 0 0 0.537255 0 0 0 0 0.541176 0 0 0 0 0.552941 0 0 0 1 0"/>
<feBlend mode="normal" in2="BackgroundImageFix" result="effect1_dropShadow_17_1729"/>
<feBlend mode="normal" in="SourceGraphic" in2="effect1_dropShadow_17_1729" result="shape"/>
</filter>
<filter id="filter10_d_17_1729" x="97" y="116" width="32" height="43" filterUnits="userSpaceOnUse" color-interpolation-filters="sRGB">
<feFlood flood-opacity="0" result="BackgroundImageFix"/>
<feColorMatrix in="SourceAlpha" type="matrix" values="0 0 0 0 0 0 0 0 0 0 0 0 0 0 0 0 0 0 127 0" result="hardAlpha"/>
<feOffset dy="1"/>
<feColorMatrix type="matrix" values="0 0 0 0 0.537255 0 0 0 0 0.541176 0 0 0 0 0.552941 0 0 0 1 0"/>
<feBlend mode="normal" in2="BackgroundImageFix" result="effect1_dropShadow_17_1729"/>
<feBlend mode="normal" in="SourceGraphic" in2="effect1_dropShadow_17_1729" result="shape"/>
</filter>
<filter id="filter11_d_17_1729" x="59" y="116" width="32" height="43" filterUnits="userSpaceOnUse" color-interpolation-filters="sRGB">
<feFlood flood-opacity="0" result="BackgroundImageFix"/>
<feColorMatrix in="SourceAlpha" type="matrix" values="0 0 0 0 0 0 0 0 0 0 0 0 0 0 0 0 0 0 127 0" result="hardAlpha"/>
<feOffset dy="1"/>
<feColorMatrix type="matrix" values="0 0 0 0 0.537255 0 0 0 0 0.541176 0 0 0 0 0.552941 0 0 0 1 0"/>
<feBlend mode="normal" in2="BackgroundImageFix" result="effect1_dropShadow_17_1729"/>
<feBlend mode="normal" in="SourceGraphic" in2="effect1_dropShadow_17_1729" result="shape"/>
</filter>
<filter id="filter12_d_17_1729" x="322" y="62" width="32" height="43" filterUnits="userSpaceOnUse" color-interpolation-filters="sRGB">
<feFlood flood-opacity="0" result="BackgroundImageFix"/>
<feColorMatrix in="SourceAlpha" type="matrix" values="0 0 0 0 0 0 0 0 0 0 0 0 0 0 0 0 0 0 127 0" result="hardAlpha"/>
<feOffset dy="1"/>
<feColorMatrix type="matrix" values="0 0 0 0 0.537255 0 0 0 0 0.541176 0 0 0 0 0.552941 0 0 0 1 0"/>
<feBlend mode="normal" in2="BackgroundImageFix" result="effect1_dropShadow_17_1729"/>
<feBlend mode="normal" in="SourceGraphic" in2="effect1_dropShadow_17_1729" result="shape"/>
</filter>
<filter id="filter13_d_17_1729" x="284" y="62" width="32" height="43" filterUnits="userSpaceOnUse" color-interpolation-filters="sRGB">
<feFlood flood-opacity="0" result="BackgroundImageFix"/>
<feColorMatrix in="SourceAlpha" type="matrix" values="0 0 0 0 0 0 0 0 0 0 0 0 0 0 0 0 0 0 127 0" result="hardAlpha"/>
<feOffset dy="1"/>
<feColorMatrix type="matrix" values="0 0 0 0 0.537255 0 0 0 0 0.541176 0 0 0 0 0.552941 0 0 0 1 0"/>
<feBlend mode="normal" in2="BackgroundImageFix" result="effect1_dropShadow_17_1729"/>
<feBlend mode="normal" in="SourceGraphic" in2="effect1_dropShadow_17_1729" result="shape"/>
</filter>
<filter id="filter14_d_17_1729" x="247" y="62" width="32" height="43" filterUnits="userSpaceOnUse" color-interpolation-filters="sRGB">
<feFlood flood-opacity="0" result="BackgroundImageFix"/>
<feColorMatrix in="SourceAlpha" type="matrix" values="0 0 0 0 0 0 0 0 0 0 0 0 0 0 0 0 0 0 127 0" result="hardAlpha"/>
<feOffset dy="1"/>
<feColorMatrix type="matrix" values="0 0 0 0 0.537255 0 0 0 0 0.541176 0 0 0 0 0.552941 0 0 0 1 0"/>
<feBlend mode="normal" in2="BackgroundImageFix" result="effect1_dropShadow_17_1729"/>
<feBlend mode="normal" in="SourceGraphic" in2="effect1_dropShadow_17_1729" result="shape"/>
</filter>
<filter id="filter15_d_17_1729" x="209" y="62" width="32" height="43" filterUnits="userSpaceOnUse" color-interpolation-filters="sRGB">
<feFlood flood-opacity="0" result="BackgroundImageFix"/>
<feColorMatrix in="SourceAlpha" type="matrix" values="0 0 0 0 0 0 0 0 0 0 0 0 0 0 0 0 0 0 127 0" result="hardAlpha"/>
<feOffset dy="1"/>
<feColorMatrix type="matrix" values="0 0 0 0 0.537255 0 0 0 0 0.541176 0 0 0 0 0.552941 0 0 0 1 0"/>
<feBlend mode="normal" in2="BackgroundImageFix" result="effect1_dropShadow_17_1729"/>
<feBlend mode="normal" in="SourceGraphic" in2="effect1_dropShadow_17_1729" result="shape"/>
</filter>
<filter id="filter16_d_17_1729" x="172" y="62" width="32" height="43" filterUnits="userSpaceOnUse" color-interpolation-filters="sRGB">
<feFlood flood-opacity="0" result="BackgroundImageFix"/>
<feColorMatrix in="SourceAlpha" type="matrix" values="0 0 0 0 0 0 0 0 0 0 0 0 0 0 0 0 0 0 127 0" result="hardAlpha"/>
<feOffset dy="1"/>
<feColorMatrix type="matrix" values="0 0 0 0 0.537255 0 0 0 0 0.541176 0 0 0 0 0.552941 0 0 0 1 0"/>
<feBlend mode="normal" in2="BackgroundImageFix" result="effect1_dropShadow_17_1729"/>
<feBlend mode="normal" in="SourceGraphic" in2="effect1_dropShadow_17_1729" result="shape"/>
</filter>
<filter id="filter17_d_17_1729" x="134" y="62" width="32" height="43" filterUnits="userSpaceOnUse" color-interpolation-filters="sRGB">
<feFlood flood-opacity="0" result="BackgroundImageFix"/>
<feColorMatrix in="SourceAlpha" type="matrix" values="0 0 0 0 0 0 0 0 0 0 0 0 0 0 0 0 0 0 127 0" result="hardAlpha"/>
<feOffset dy="1"/>
<feColorMatrix type="matrix" values="0 0 0 0 0.537255 0 0 0 0 0.541176 0 0 0 0 0.552941 0 0 0 1 0"/>
<feBlend mode="normal" in2="BackgroundImageFix" result="effect1_dropShadow_17_1729"/>
<feBlend mode="normal" in="SourceGraphic" in2="effect1_dropShadow_17_1729" result="shape"/>
</filter>
<filter id="filter18_d_17_1729" x="97" y="62" width="32" height="43" filterUnits="userSpaceOnUse" color-interpolation-filters="sRGB">
<feFlood flood-opacity="0" result="BackgroundImageFix"/>
<feColorMatrix in="SourceAlpha" type="matrix" values="0 0 0 0 0 0 0 0 0 0 0 0 0 0 0 0 0 0 127 0" result="hardAlpha"/>
<feOffset dy="1"/>
<feColorMatrix type="matrix" values="0 0 0 0 0.537255 0 0 0 0 0.541176 0 0 0 0 0.552941 0 0 0 1 0"/>
<feBlend mode="normal" in2="BackgroundImageFix" result="effect1_dropShadow_17_1729"/>
<feBlend mode="normal" in="SourceGraphic" in2="effect1_dropShadow_17_1729" result="shape"/>
</filter>
<filter id="filter19_d_17_1729" x="59" y="62" width="32" height="43" filterUnits="userSpaceOnUse" color-interpolation-filters="sRGB">
<feFlood flood-opacity="0" result="BackgroundImageFix"/>
<feColorMatrix in="SourceAlpha" type="matrix" values="0 0 0 0 0 0 0 0 0 0 0 0 0 0 0 0 0 0 127 0" result="hardAlpha"/>
<feOffset dy="1"/>
<feColorMatrix type="matrix" values="0 0 0 0 0.537255 0 0 0 0 0.541176 0 0 0 0 0.552941 0 0 0 1 0"/>
<feBlend mode="normal" in2="BackgroundImageFix" result="effect1_dropShadow_17_1729"/>
<feBlend mode="normal" in="SourceGraphic" in2="effect1_dropShadow_17_1729" result="shape"/>
</filter>
<filter id="filter20_d_17_1729" x="22" y="62" width="32" height="43" filterUnits="userSpaceOnUse" color-interpolation-filters="sRGB">
<feFlood flood-opacity="0" result="BackgroundImageFix"/>
<feColorMatrix in="SourceAlpha" type="matrix" values="0 0 0 0 0 0 0 0 0 0 0 0 0 0 0 0 0 0 127 0" result="hardAlpha"/>
<feOffset dy="1"/>
<feColorMatrix type="matrix" values="0 0 0 0 0.537255 0 0 0 0 0.541176 0 0 0 0 0.552941 0 0 0 1 0"/>
<feBlend mode="normal" in2="BackgroundImageFix" result="effect1_dropShadow_17_1729"/>
<feBlend mode="normal" in="SourceGraphic" in2="effect1_dropShadow_17_1729" result="shape"/>
</filter>
<filter id="filter21_d_17_1729" x="340" y="8" width="32" height="43" filterUnits="userSpaceOnUse" color-interpolation-filters="sRGB">
<feFlood flood-opacity="0" result="BackgroundImageFix"/>
<feColorMatrix in="SourceAlpha" type="matrix" values="0 0 0 0 0 0 0 0 0 0 0 0 0 0 0 0 0 0 127 0" result="hardAlpha"/>
<feOffset dy="1"/>
<feColorMatrix type="matrix" values="0 0 0 0 0.537255 0 0 0 0 0.541176 0 0 0 0 0.552941 0 0 0 1 0"/>
<feBlend mode="normal" in2="BackgroundImageFix" result="effect1_dropShadow_17_1729"/>
<feBlend mode="normal" in="SourceGraphic" in2="effect1_dropShadow_17_1729" result="shape"/>
</filter>
<filter id="filter22_d_17_1729" x="303" y="8" width="32" height="43" filterUnits="userSpaceOnUse" color-interpolation-filters="sRGB">
<feFlood flood-opacity="0" result="BackgroundImageFix"/>
<feColorMatrix in="SourceAlpha" type="matrix" values="0 0 0 0 0 0 0 0 0 0 0 0 0 0 0 0 0 0 127 0" result="hardAlpha"/>
<feOffset dy="1"/>
<feColorMatrix type="matrix" values="0 0 0 0 0.537255 0 0 0 0 0.541176 0 0 0 0 0.552941 0 0 0 1 0"/>
<feBlend mode="normal" in2="BackgroundImageFix" result="effect1_dropShadow_17_1729"/>
<feBlend mode="normal" in="SourceGraphic" in2="effect1_dropShadow_17_1729" result="shape"/>
</filter>
<filter id="filter23_d_17_1729" x="265" y="8" width="32" height="43" filterUnits="userSpaceOnUse" color-interpolation-filters="sRGB">
<feFlood flood-opacity="0" result="BackgroundImageFix"/>
<feColorMatrix in="SourceAlpha" type="matrix" values="0 0 0 0 0 0 0 0 0 0 0 0 0 0 0 0 0 0 127 0" result="hardAlpha"/>
<feOffset dy="1"/>
<feColorMatrix type="matrix" values="0 0 0 0 0.537255 0 0 0 0 0.541176 0 0 0 0 0.552941 0 0 0 1 0"/>
<feBlend mode="normal" in2="BackgroundImageFix" result="effect1_dropShadow_17_1729"/>
<feBlend mode="normal" in="SourceGraphic" in2="effect1_dropShadow_17_1729" result="shape"/>
</filter>
<filter id="filter24_d_17_1729" x="228" y="8" width="32" height="43" filterUnits="userSpaceOnUse" color-interpolation-filters="sRGB">
<feFlood flood-opacity="0" result="BackgroundImageFix"/>
<feColorMatrix in="SourceAlpha" type="matrix" values="0 0 0 0 0 0 0 0 0 0 0 0 0 0 0 0 0 0 127 0" result="hardAlpha"/>
<feOffset dy="1"/>
<feColorMatrix type="matrix" values="0 0 0 0 0.537255 0 0 0 0 0.541176 0 0 0 0 0.552941 0 0 0 1 0"/>
<feBlend mode="normal" in2="BackgroundImageFix" result="effect1_dropShadow_17_1729"/>
<feBlend mode="normal" in="SourceGraphic" in2="effect1_dropShadow_17_1729" result="shape"/>
</filter>
<filter id="filter25_d_17_1729" x="190" y="8" width="32" height="43" filterUnits="userSpaceOnUse" color-interpolation-filters="sRGB">
<feFlood flood-opacity="0" result="BackgroundImageFix"/>
<feColorMatrix in="SourceAlpha" type="matrix" values="0 0 0 0 0 0 0 0 0 0 0 0 0 0 0 0 0 0 127 0" result="hardAlpha"/>
<feOffset dy="1"/>
<feColorMatrix type="matrix" values="0 0 0 0 0.537255 0 0 0 0 0.541176 0 0 0 0 0.552941 0 0 0 1 0"/>
<feBlend mode="normal" in2="BackgroundImageFix" result="effect1_dropShadow_17_1729"/>
<feBlend mode="normal" in="SourceGraphic" in2="effect1_dropShadow_17_1729" result="shape"/>
</filter>
<filter id="filter26_d_17_1729" x="153" y="8" width="32" height="43" filterUnits="userSpaceOnUse" color-interpolation-filters="sRGB">
<feFlood flood-opacity="0" result="BackgroundImageFix"/>
<feColorMatrix in="SourceAlpha" type="matrix" values="0 0 0 0 0 0 0 0 0 0 0 0 0 0 0 0 0 0 127 0" result="hardAlpha"/>
<feOffset dy="1"/>
<feColorMatrix type="matrix" values="0 0 0 0 0.537255 0 0 0 0 0.541176 0 0 0 0 0.552941 0 0 0 1 0"/>
<feBlend mode="normal" in2="BackgroundImageFix" result="effect1_dropShadow_17_1729"/>
<feBlend mode="normal" in="SourceGraphic" in2="effect1_dropShadow_17_1729" result="shape"/>
</filter>
<filter id="filter27_d_17_1729" x="115" y="8" width="32" height="43" filterUnits="userSpaceOnUse" color-interpolation-filters="sRGB">
<feFlood flood-opacity="0" result="BackgroundImageFix"/>
<feColorMatrix in="SourceAlpha" type="matrix" values="0 0 0 0 0 0 0 0 0 0 0 0 0 0 0 0 0 0 127 0" result="hardAlpha"/>
<feOffset dy="1"/>
<feColorMatrix type="matrix" values="0 0 0 0 0.537255 0 0 0 0 0.541176 0 0 0 0 0.552941 0 0 0 1 0"/>
<feBlend mode="normal" in2="BackgroundImageFix" result="effect1_dropShadow_17_1729"/>
<feBlend mode="normal" in="SourceGraphic" in2="effect1_dropShadow_17_1729" result="shape"/>
</filter>
<filter id="filter28_d_17_1729" x="78" y="8" width="32" height="43" filterUnits="userSpaceOnUse" color-interpolation-filters="sRGB">
<feFlood flood-opacity="0" result="BackgroundImageFix"/>
<feColorMatrix in="SourceAlpha" type="matrix" values="0 0 0 0 0 0 0 0 0 0 0 0 0 0 0 0 0 0 127 0" result="hardAlpha"/>
<feOffset dy="1"/>
<feColorMatrix type="matrix" values="0 0 0 0 0.537255 0 0 0 0 0.541176 0 0 0 0 0.552941 0 0 0 1 0"/>
<feBlend mode="normal" in2="BackgroundImageFix" result="effect1_dropShadow_17_1729"/>
<feBlend mode="normal" in="SourceGraphic" in2="effect1_dropShadow_17_1729" result="shape"/>
</filter>
<filter id="filter29_d_17_1729" x="40" y="8" width="32" height="43" filterUnits="userSpaceOnUse" color-interpolation-filters="sRGB">
<feFlood flood-opacity="0" result="BackgroundImageFix"/>
<feColorMatrix in="SourceAlpha" type="matrix" values="0 0 0 0 0 0 0 0 0 0 0 0 0 0 0 0 0 0 127 0" result="hardAlpha"/>
<feOffset dy="1"/>
<feColorMatrix type="matrix" values="0 0 0 0 0.537255 0 0 0 0 0.541176 0 0 0 0 0.552941 0 0 0 1 0"/>
<feBlend mode="normal" in2="BackgroundImageFix" result="effect1_dropShadow_17_1729"/>
<feBlend mode="normal" in="SourceGraphic" in2="effect1_dropShadow_17_1729" result="shape"/>
</filter>
<filter id="filter30_d_17_1729" x="3" y="8" width="32" height="43" filterUnits="userSpaceOnUse" color-interpolation-filters="sRGB">
<feFlood flood-opacity="0" result="BackgroundImageFix"/>
<feColorMatrix in="SourceAlpha" type="matrix" values="0 0 0 0 0 0 0 0 0 0 0 0 0 0 0 0 0 0 127 0" result="hardAlpha"/>
<feOffset dy="1"/>
<feColorMatrix type="matrix" values="0 0 0 0 0.537255 0 0 0 0 0.541176 0 0 0 0 0.552941 0 0 0 1 0"/>
<feBlend mode="normal" in2="BackgroundImageFix" result="effect1_dropShadow_17_1729"/>
<feBlend mode="normal" in="SourceGraphic" in2="effect1_dropShadow_17_1729" result="shape"/>
</filter>
<clipPath id="clip0_17_1729">
<rect width="375" height="291" fill="white"/>
</clipPath>
<clipPath id="clip1_17_1729">
<rect width="369" height="259" fill="white" transform="translate(3 8)"/>
</clipPath>
<clipPath id="clip2_17_1729">
<rect width="88" height="42" fill="white" transform="translate(284 170)"/>
</clipPath>
<clipPath id="clip3_17_1729">
<rect width="182" height="42" fill="white" transform="translate(96 170)"/>
</clipPath>
<clipPath id="clip4_17_1729">
<rect width="87" height="42" fill="white" transform="translate(3 170)"/>
</clipPath>
<clipPath id="clip5_17_1729">
<rect width="42" height="42" fill="white" transform="translate(330 116)"/>
</clipPath>
<clipPath id="clip6_17_1729">
<rect width="42" height="42" fill="white" transform="translate(330 116)"/>
</clipPath>
<clipPath id="clip7_17_1729">
<rect width="42" height="42" fill="white" transform="translate(3 116)"/>
</clipPath>
<clipPath id="clip8_17_1729">
<rect width="42" height="42" fill="white" transform="translate(3 116)"/>
</clipPath>
<clipPath id="clip9_17_1729">
<rect width="32" height="42" fill="white" transform="translate(285 116)"/>
</clipPath>
<clipPath id="clip10_17_1729">
<rect width="32" height="42" fill="white" transform="translate(247 116)"/>
</clipPath>
<clipPath id="clip11_17_1729">
<rect width="32" height="42" fill="white" transform="translate(209 116)"/>
</clipPath>
<clipPath id="clip12_17_1729">
<rect width="32" height="42" fill="white" transform="translate(172 116)"/>
</clipPath>
<clipPath id="clip13_17_1729">
<rect width="32" height="42" fill="white" transform="translate(134 116)"/>
</clipPath>
<clipPath id="clip14_17_1729">
<rect width="32" height="42" fill="white" transform="translate(97 116)"/>
</clipPath>
<clipPath id="clip15_17_1729">
<rect width="32" height="42" fill="white" transform="translate(59 116)"/>
</clipPath>
<clipPath id="clip16_17_1729">
<rect width="32" height="42" fill="white" transform="translate(322 62)"/>
</clipPath>
<clipPath id="clip17_17_1729">
<rect width="32" height="42" fill="white" transform="translate(284 62)"/>
</clipPath>
<clipPath id="clip18_17_1729">
<rect width="32" height="42" fill="white" transform="translate(247 62)"/>
</clipPath>
<clipPath id="clip19_17_1729">
<rect width="32" height="42" fill="white" transform="translate(209 62)"/>
</clipPath>
<clipPath id="clip20_17_1729">
<rect width="32" height="42" fill="white" transform="translate(172 62)"/>
</clipPath>
<clipPath id="clip21_17_1729">
<rect width="32" height="42" fill="white" transform="translate(134 62)"/>
</clipPath>
<clipPath id="clip22_17_1729">
<rect width="32" height="42" fill="white" transform="translate(97 62)"/>
</clipPath>
<clipPath id="clip23_17_1729">
<rect width="32" height="42" fill="white" transform="translate(59 62)"/>
</clipPath>
<clipPath id="clip24_17_1729">
<rect width="32" height="42" fill="white" transform="translate(22 62)"/>
</clipPath>
<clipPath id="clip25_17_1729">
<rect width="32" height="42" fill="white" transform="translate(340 8)"/>
</clipPath>
<clipPath id="clip26_17_1729">
<rect width="32" height="42" fill="white" transform="translate(303 8)"/>
</clipPath>
<clipPath id="clip27_17_1729">
<rect width="32" height="42" fill="white" transform="translate(265 8)"/>
</clipPath>
<clipPath id="clip28_17_1729">
<rect width="32" height="42" fill="white" transform="translate(228 8)"/>
</clipPath>
<clipPath id="clip29_17_1729">
<rect width="32" height="42" fill="white" transform="translate(190 8)"/>
</clipPath>
<clipPath id="clip30_17_1729">
<rect width="32" height="42" fill="white" transform="translate(153 8)"/>
</clipPath>
<clipPath id="clip31_17_1729">
<rect width="32" height="42" fill="white" transform="translate(115 8)"/>
</clipPath>
<clipPath id="clip32_17_1729">
<rect width="32" height="42" fill="white" transform="translate(78 8)"/>
</clipPath>
<clipPath id="clip33_17_1729">
<rect width="32" height="42" fill="white" transform="translate(40 8)"/>
</clipPath>
<clipPath id="clip34_17_1729">
<rect width="32" height="42" fill="white" transform="translate(3 8)"/>
</clipPath>
</defs>
</svg>
