
<svg width="24" height="21" viewBox="0 0 24 21" fill="none" xmlns="http://www.w3.org/2000/svg">
<path d="M19.75 8C21.1172 8 23.5 9.13281 23.5 10.5C23.5 11.9062 21.1172 13 19.75 13H15.2578L11.1562 20.1875C11.0391 20.3828 10.8438 20.5 10.6094 20.5H8.07031C7.64062 20.5 7.32812 20.1094 7.44531 19.7188L9.35938 13H5.375L3.65625 15.2656C3.53906 15.4219 3.38281 15.5 3.1875 15.5H1.625C1.19531 15.5 0.882812 15.1484 1 14.7578L2.25 10.5L1 6.28125C0.882812 5.89062 1.19531 5.5 1.625 5.5H3.1875C3.38281 5.5 3.53906 5.61719 3.65625 5.77344L5.375 8H9.35938L7.44531 1.32031C7.32812 0.929688 7.64062 0.5 8.07031 0.5H10.6094C10.8438 0.5 11.0391 0.65625 11.1562 0.851562L15.2578 8H19.75Z" fill="#1BBC9B"/>
</svg>
