




<svg width="22" height="21" viewBox="0 0 22 21" fill="none" xmlns="http://www.w3.org/2000/svg">
<path d="M11 6.75C13.0312 6.75 14.75 8.46875 14.75 10.5C14.75 12.5703 13.0312 14.25 11 14.25C8.92969 14.25 7.25 12.5703 7.25 10.5C7.25 8.46875 8.92969 6.75 11 6.75ZM20.6094 9.91406C21.1172 10.1484 21.1172 10.8906 20.6094 11.125L16.8984 12.9609L18.2266 16.9062C18.3828 17.4141 17.875 17.9219 17.3672 17.7656L13.4219 16.4375L11.5859 20.1484C11.3516 20.6562 10.6094 20.6562 10.375 20.1484L8.53906 16.4375L4.59375 17.7656C4.08594 17.9219 3.57812 17.4141 3.73438 16.9062L5.0625 12.9609L1.35156 11.125C0.84375 10.8906 0.84375 10.1484 1.35156 9.91406L5.0625 8.07812L3.73438 4.13281C3.57812 3.625 4.08594 3.11719 4.59375 3.27344L8.53906 4.60156L10.375 0.890625C10.6094 0.382812 11.3516 0.382812 11.5859 0.890625L13.4219 4.60156L17.3672 3.27344C17.875 3.11719 18.3828 3.625 18.2266 4.13281L16.8984 8.07812L20.6094 9.91406ZM14.5156 14.0547C16.4688 12.1016 16.4688 8.9375 14.5156 6.98438C12.5625 5.03125 9.39844 5.03125 7.44531 6.98438C5.49219 8.9375 5.49219 12.1016 7.44531 14.0547C9.39844 16.0078 12.5625 16.0078 14.5156 14.0547Z" fill="#1BBC9B"/>
</svg>
