<svg width="30" height="30" viewBox="0 0 30 30" fill="none" xmlns="http://www.w3.org/2000/svg">
<rect width="30" height="30" rx="15" fill="#1BBC9B"/>
<path d="M29.106 21.3027C29.5454 22.3281 28.813 23.5 27.7388 23.5H18.1196L17.6313 18.7637C17.5825 18.373 17.2407 18.0312 16.8501 18.0312H13.481C13.0903 18.0312 12.7485 18.373 12.6997 18.7637L12.2114 23.5H2.59229C1.51807 23.5 0.785645 22.3281 1.2251 21.3027L8.06104 5.67773C8.30518 5.14062 8.84229 4.75 9.42822 4.75H14.1646L14.0669 5.92188C14.0181 6.11719 14.2134 6.3125 14.4575 6.3125H15.8735C16.1177 6.3125 16.313 6.11719 16.2642 5.92188L16.1665 4.75H20.9028C21.4888 4.75 22.0259 5.14062 22.27 5.67773L29.106 21.3027ZM13.8228 8.26562L13.5786 10.3652C13.5786 10.707 13.8228 11 14.1646 11H16.1665C16.5083 11 16.7524 10.707 16.7524 10.3652L16.5083 8.26562C16.5083 8.07031 16.313 7.875 16.1177 7.875H14.2134V7.92383C14.0181 7.92383 13.8228 8.07031 13.8228 8.26562ZM16.5083 16.4688C16.9966 16.4688 17.3384 16.0781 17.2896 15.6387L17.0454 13.2949C16.9966 12.9043 16.6548 12.5625 16.2642 12.5625H14.0669C13.6763 12.5625 13.3345 12.9043 13.2856 13.2949L13.0415 15.6387C12.9927 16.0781 13.3345 16.4688 13.8228 16.4688H16.5083Z" fill="white"/>
</svg>
